<svg width="106" height="23" viewBox="0 0 106 23" fill="none" xmlns="http://www.w3.org/2000/svg">
<path d="M10.479 14.396H4.977L4.095 17H0.336L5.67 2.258H9.828L15.162 17H11.361L10.479 14.396ZM9.555 11.624L7.728 6.227L5.922 11.624H9.555ZM20.3764 1.46V17H16.7854V1.46H20.3764ZM24.7848 4.064C24.1548 4.064 23.6368 3.882 23.2308 3.518C22.8388 3.14 22.6428 2.678 22.6428 2.132C22.6428 1.572 22.8388 1.11 23.2308 0.745999C23.6368 0.367999 24.1548 0.178999 24.7848 0.178999C25.4008 0.178999 25.9048 0.367999 26.2968 0.745999C26.7028 1.11 26.9058 1.572 26.9058 2.132C26.9058 2.678 26.7028 3.14 26.2968 3.518C25.9048 3.882 25.4008 4.064 24.7848 4.064ZM26.5698 5.282V17H22.9788V5.282H26.5698ZM42.5053 13.514H35.8273L34.5463 17H32.9923L38.3473 2.51H40.0063L45.3403 17H43.7863L42.5053 13.514ZM42.0643 12.296L39.1663 4.358L36.2683 12.296H42.0643ZM49.1695 1.46V17H47.6995V1.46H49.1695ZM56.4464 17.168C55.1304 17.168 54.0524 16.867 53.2124 16.265C52.3864 15.649 51.9244 14.816 51.8264 13.766H53.3384C53.4084 14.41 53.7094 14.935 54.2414 15.341C54.7874 15.733 55.5154 15.929 56.4254 15.929C57.2234 15.929 57.8464 15.74 58.2944 15.362C58.7564 14.984 58.9874 14.515 58.9874 13.955C58.9874 13.563 58.8614 13.241 58.6094 12.989C58.3574 12.737 58.0354 12.541 57.6434 12.401C57.2654 12.247 56.7474 12.086 56.0894 11.918C55.2354 11.694 54.5424 11.47 54.0104 11.246C53.4784 11.022 53.0234 10.693 52.6454 10.259C52.2814 9.811 52.0994 9.216 52.0994 8.474C52.0994 7.914 52.2674 7.396 52.6034 6.92C52.9394 6.444 53.4154 6.066 54.0314 5.786C54.6474 5.506 55.3474 5.366 56.1314 5.366C57.3634 5.366 58.3574 5.681 59.1134 6.311C59.8694 6.927 60.2754 7.781 60.3314 8.873H58.8614C58.8194 8.201 58.5534 7.662 58.0634 7.256C57.5874 6.836 56.9294 6.626 56.0894 6.626C55.3474 6.626 54.7454 6.801 54.2834 7.151C53.8214 7.501 53.5904 7.935 53.5904 8.453C53.5904 8.901 53.7234 9.272 53.9894 9.566C54.2694 9.846 54.6124 10.07 55.0184 10.238C55.4244 10.392 55.9704 10.567 56.6564 10.763C57.4824 10.987 58.1404 11.204 58.6304 11.414C59.1204 11.624 59.5404 11.932 59.8904 12.338C60.2404 12.744 60.4224 13.283 60.4364 13.955C60.4364 14.571 60.2684 15.124 59.9324 15.614C59.5964 16.09 59.1274 16.468 58.5254 16.748C57.9234 17.028 57.2304 17.168 56.4464 17.168ZM72.6534 5.534L65.8494 22.397H64.3164L66.5424 16.937L61.8384 5.534H63.4554L67.3614 15.32L71.1414 5.534H72.6534ZM79.6658 17.168C78.5878 17.168 77.6148 16.93 76.7468 16.454C75.8928 15.964 75.2138 15.278 74.7098 14.396C74.2198 13.5 73.9748 12.457 73.9748 11.267C73.9748 10.077 74.2268 9.041 74.7308 8.159C75.2348 7.263 75.9208 6.577 76.7888 6.101C77.6568 5.611 78.6298 5.366 79.7078 5.366C80.7858 5.366 81.7588 5.611 82.6268 6.101C83.5088 6.577 84.1948 7.263 84.6848 8.159C85.1888 9.041 85.4408 10.077 85.4408 11.267C85.4408 12.443 85.1888 13.479 84.6848 14.375C84.1808 15.271 83.4878 15.964 82.6058 16.454C81.7238 16.93 80.7438 17.168 79.6658 17.168ZM79.6658 15.887C80.4218 15.887 81.1218 15.719 81.7658 15.383C82.4098 15.033 82.9278 14.515 83.3198 13.829C83.7258 13.129 83.9288 12.275 83.9288 11.267C83.9288 10.259 83.7328 9.412 83.3408 8.726C82.9488 8.026 82.4308 7.508 81.7868 7.172C81.1428 6.822 80.4428 6.647 79.6868 6.647C78.9308 6.647 78.2308 6.822 77.5868 7.172C76.9428 7.508 76.4248 8.026 76.0328 8.726C75.6548 9.412 75.4658 10.259 75.4658 11.267C75.4658 12.275 75.6548 13.129 76.0328 13.829C76.4248 14.515 76.9358 15.033 77.5658 15.383C78.2098 15.719 78.9098 15.887 79.6658 15.887ZM98.0534 5.534V17H96.5834V14.984C96.2474 15.698 95.7294 16.244 95.0294 16.622C94.3294 17 93.5454 17.189 92.6774 17.189C91.3054 17.189 90.1854 16.769 89.3174 15.929C88.4494 15.075 88.0154 13.843 88.0154 12.233V5.534H89.4644V12.065C89.4644 13.311 89.7724 14.263 90.3884 14.921C91.0184 15.579 91.8724 15.908 92.9504 15.908C94.0564 15.908 94.9384 15.558 95.5964 14.858C96.2544 14.158 96.5834 13.129 96.5834 11.771V5.534H98.0534ZM105.924 6.773H103.257V17H101.787V6.773H100.191V5.534H101.787V4.736C101.787 3.49 102.102 2.573 102.732 1.985C103.376 1.397 104.412 1.103 105.84 1.103V2.363C104.888 2.363 104.216 2.545 103.824 2.909C103.446 3.273 103.257 3.882 103.257 4.736V5.534H105.924V6.773Z" fill="#9AC9BC"/>
</svg>
