<svg width="1228" height="574" viewBox="0 0 1228 574" fill="none" xmlns="http://www.w3.org/2000/svg">
<path d="M1153.05 542.833C1153.05 540.085 1153.68 537.619 1154.95 535.436C1156.24 533.253 1157.98 531.556 1160.16 530.343C1162.37 529.103 1164.78 528.483 1167.4 528.483C1170.39 528.483 1173.04 529.225 1175.36 530.707C1177.7 532.162 1179.4 534.237 1180.45 536.932H1174.91C1174.19 535.45 1173.18 534.345 1171.88 533.617C1170.59 532.89 1169.09 532.526 1167.4 532.526C1165.54 532.526 1163.88 532.943 1162.42 533.779C1160.97 534.614 1159.82 535.813 1158.99 537.376C1158.18 538.939 1157.78 540.758 1157.78 542.833C1157.78 544.908 1158.18 546.727 1158.99 548.29C1159.82 549.853 1160.97 551.066 1162.42 551.929C1163.88 552.764 1165.54 553.182 1167.4 553.182C1169.09 553.182 1170.59 552.818 1171.88 552.09C1173.18 551.363 1174.19 550.258 1174.91 548.776H1180.45C1179.4 551.47 1177.7 553.545 1175.36 555.001C1173.04 556.456 1170.39 557.183 1167.4 557.183C1164.75 557.183 1162.34 556.577 1160.16 555.364C1157.98 554.125 1156.24 552.414 1154.95 550.231C1153.68 548.048 1153.05 545.582 1153.05 542.833ZM1208.28 528.847V556.941H1203.67V544.652H1190.45V556.941H1185.85V528.847H1190.45V540.893H1203.67V528.847H1208.28Z" fill="#8BA59D" fill-opacity="0.73"/>
<path d="M1214.4 550.496C1214.5 548.992 1215.07 547.82 1216.12 546.979C1217.19 546.139 1218.55 545.718 1220.2 545.718C1221.33 545.718 1222.31 545.92 1223.13 546.324C1223.96 546.729 1224.58 547.278 1225 547.974C1225.42 548.669 1225.63 549.453 1225.63 550.326C1225.63 551.329 1225.36 552.186 1224.83 552.897C1224.29 553.609 1223.66 554.086 1222.91 554.328V554.425C1223.87 554.716 1224.61 555.25 1225.14 556.026C1225.68 556.786 1225.94 557.764 1225.94 558.961C1225.94 559.915 1225.73 560.763 1225.29 561.507C1224.85 562.251 1224.21 562.841 1223.35 563.278C1222.49 563.698 1221.46 563.908 1220.27 563.908C1218.52 563.908 1217.08 563.464 1215.95 562.574C1214.84 561.669 1214.24 560.375 1214.16 558.694H1216.82C1216.89 559.551 1217.22 560.254 1217.82 560.804C1218.42 561.337 1219.23 561.604 1220.24 561.604C1221.23 561.604 1221.99 561.337 1222.52 560.804C1223.06 560.254 1223.32 559.551 1223.32 558.694C1223.32 557.562 1222.96 556.762 1222.23 556.293C1221.52 555.808 1220.42 555.565 1218.93 555.565H1218.3V553.285H1218.96C1220.27 553.269 1221.26 553.051 1221.94 552.63C1222.64 552.21 1222.98 551.547 1222.98 550.642C1222.98 549.866 1222.73 549.251 1222.23 548.798C1221.73 548.329 1221.02 548.095 1220.1 548.095C1219.19 548.095 1218.49 548.329 1217.99 548.798C1217.49 549.251 1217.19 549.817 1217.09 550.496H1214.4Z" fill="#8BA59D" fill-opacity="0.73"/>
<path d="M922.193 328.958H917.585L903.72 307.978V328.958H899.111V300.824H903.72L917.585 321.763V300.824H922.193V328.958Z" fill="#8BA59D" fill-opacity="0.73"/>
<path d="M558.39 328.958H553.782L539.917 307.978V328.958H535.309V300.824H539.917L553.782 321.763V300.824H558.39V328.958Z" fill="#8BA59D" fill-opacity="0.73"/>
<path d="M913.542 529.737C910.928 529.737 908.516 529.13 906.307 527.918C904.124 526.678 902.386 524.967 901.092 522.784C899.825 520.574 899.192 518.095 899.192 515.346C899.192 512.597 899.825 510.132 901.092 507.949C902.386 505.766 904.124 504.068 906.307 502.856C908.516 501.616 910.928 500.996 913.542 500.996C916.183 500.996 918.595 501.616 920.778 502.856C922.988 504.068 924.726 505.766 925.992 507.949C927.259 510.132 927.892 512.597 927.892 515.346C927.892 518.095 927.259 520.574 925.992 522.784C924.726 524.967 922.988 526.678 920.778 527.918C918.595 529.13 916.183 529.737 913.542 529.737ZM913.542 525.735C915.402 525.735 917.059 525.317 918.514 524.482C919.969 523.619 921.101 522.407 921.91 520.844C922.745 519.254 923.163 517.421 923.163 515.346C923.163 513.271 922.745 511.452 921.91 509.889C921.101 508.326 919.969 507.127 918.514 506.292C917.059 505.456 915.402 505.038 913.542 505.038C911.683 505.038 910.025 505.456 908.57 506.292C907.115 507.127 905.97 508.326 905.134 509.889C904.326 511.452 903.922 513.271 903.922 515.346C903.922 517.421 904.326 519.254 905.134 520.844C905.97 522.407 907.115 523.619 908.57 524.482C910.025 525.317 911.683 525.735 913.542 525.735Z" fill="#8BA59D" fill-opacity="0.73"/>
<line x1="181.795" y1="524.549" x2="242.909" y2="418.999" stroke="#8BA59D" stroke-opacity="0.73" stroke-width="1.6169"/>
<line x1="1092.43" y1="211.468" x2="1153.54" y2="105.918" stroke="#8BA59D" stroke-opacity="0.73" stroke-width="1.6169"/>
<line x1="728.624" y1="420.049" x2="789.738" y2="314.498" stroke="#8BA59D" stroke-opacity="0.73" stroke-width="1.6169"/>
<line x1="918.017" y1="495.244" x2="966.628" y2="411.288" stroke="#8BA59D" stroke-opacity="0.73" stroke-width="1.6169"/>
<line x1="930.952" y1="503.329" x2="979.563" y2="419.372" stroke="#8BA59D" stroke-opacity="0.73" stroke-width="1.6169"/>
<line x1="61.1392" y1="314.079" x2="183.105" y2="314.23" stroke="#8BA59D" stroke-opacity="0.73" stroke-width="1.6169"/>
<line x1="971.771" y1="0.998435" x2="1093.74" y2="1.14995" stroke="#8BA59D" stroke-opacity="0.73" stroke-width="1.6169"/>
<line x1="607.968" y1="209.579" x2="729.934" y2="209.73" stroke="#8BA59D" stroke-opacity="0.73" stroke-width="1.6169"/>
<line x1="425.343" y1="314.677" x2="520.74" y2="314.796" stroke="#8BA59D" stroke-opacity="0.73" stroke-width="1.6169"/>
<line x1="789.365" y1="315.487" x2="884.762" y2="315.606" stroke="#8BA59D" stroke-opacity="0.73" stroke-width="1.6169"/>
<line x1="0.700702" y1="418.844" x2="61.5526" y2="524.546" stroke="#8BA59D" stroke-opacity="0.73" stroke-width="1.6169"/>
<line x1="911.332" y1="105.763" x2="972.184" y2="211.465" stroke="#8BA59D" stroke-opacity="0.73" stroke-width="1.6169"/>
<line x1="560.465" y1="336.912" x2="608.061" y2="419.588" stroke="#8BA59D" stroke-opacity="0.73" stroke-width="1.6169"/>
<line x1="924.268" y1="336.912" x2="971.864" y2="419.588" stroke="#8BA59D" stroke-opacity="0.73" stroke-width="1.6169"/>
<line x1="1094.04" y1="419.374" x2="1154.89" y2="525.076" stroke="#8BA59D" stroke-opacity="0.73" stroke-width="1.6169"/>
<line x1="181.84" y1="313.825" x2="242.692" y2="419.526" stroke="#8BA59D" stroke-opacity="0.73" stroke-width="1.6169"/>
<line x1="1092.47" y1="0.743862" x2="1153.32" y2="106.445" stroke="#8BA59D" stroke-opacity="0.73" stroke-width="1.6169"/>
<line x1="728.669" y1="209.324" x2="789.521" y2="315.026" stroke="#8BA59D" stroke-opacity="0.73" stroke-width="1.6169"/>
<line x1="0.832529" y1="419.226" x2="61.9468" y2="313.675" stroke="#8BA59D" stroke-opacity="0.73" stroke-width="1.6169"/>
<line x1="911.464" y1="106.145" x2="972.578" y2="0.595156" stroke="#8BA59D" stroke-opacity="0.73" stroke-width="1.6169"/>
<line x1="560.681" y1="292.168" x2="608.483" y2="209.611" stroke="#8BA59D" stroke-opacity="0.73" stroke-width="1.6169"/>
<line x1="924.484" y1="291.95" x2="972.286" y2="209.393" stroke="#8BA59D" stroke-opacity="0.73" stroke-width="1.6169"/>
<line x1="365.036" y1="419.824" x2="426.151" y2="314.274" stroke="#8BA59D" stroke-opacity="0.73" stroke-width="1.6169"/>
<line x1="61.2284" y1="523.468" x2="183.195" y2="523.619" stroke="#8BA59D" stroke-opacity="0.73" stroke-width="1.6169"/>
<line x1="971.86" y1="210.387" x2="1093.83" y2="210.539" stroke="#8BA59D" stroke-opacity="0.73" stroke-width="1.6169"/>
<line x1="608.057" y1="418.967" x2="730.024" y2="419.119" stroke="#8BA59D" stroke-opacity="0.73" stroke-width="1.6169"/>
<line x1="971.86" y1="418.967" x2="1093.83" y2="419.119" stroke="#8BA59D" stroke-opacity="0.73" stroke-width="1.6169"/>
<line x1="172.355" y1="504.364" x2="220.967" y2="420.408" stroke="#8BA59D" stroke-opacity="0.73" stroke-width="1.6169"/>
<line x1="1082.99" y1="191.283" x2="1131.6" y2="107.327" stroke="#8BA59D" stroke-opacity="0.73" stroke-width="1.6169"/>
<line x1="75.3305" y1="331.401" x2="172.345" y2="331.521" stroke="#8BA59D" stroke-opacity="0.73" stroke-width="1.6169"/>
<line x1="985.962" y1="18.3202" x2="1082.98" y2="18.4407" stroke="#8BA59D" stroke-opacity="0.73" stroke-width="1.6169"/>
<line x1="24.1783" y1="419.605" x2="72.5809" y2="503.682" stroke="#8BA59D" stroke-opacity="0.73" stroke-width="1.6169"/>
<line x1="934.81" y1="106.524" x2="983.213" y2="190.601" stroke="#8BA59D" stroke-opacity="0.73" stroke-width="1.6169"/>
<line x1="242.852" y1="418.969" x2="364.818" y2="418.969" stroke="#8BA59D" stroke-opacity="0.73" stroke-width="1.6169"/>
</svg>
