<svg width="19" height="19" viewBox="0 0 19 19" fill="none" xmlns="http://www.w3.org/2000/svg">
<g id="copyright_FILL0_wght400_GRAD0_opsz48 (1) 1">
<path id="Vector" d="M7.7781 12.6666H11.2021C11.3868 12.6666 11.522 12.6039 11.6078 12.4786C11.6936 12.3532 11.7364 12.1982 11.7364 12.0135V10.5687H10.5489V11.4791H8.43123V7.52075H10.5489V8.45096H11.7364V7.00617C11.7364 6.82145 11.6936 6.66311 11.6078 6.53117C11.522 6.39922 11.3868 6.33325 11.2021 6.33325H7.7781C7.59338 6.33325 7.45814 6.39922 7.37238 6.53117C7.28661 6.66311 7.24373 6.82145 7.24373 7.00617V12.0135C7.24373 12.1982 7.28661 12.3532 7.37238 12.4786C7.45814 12.6039 7.59338 12.6666 7.7781 12.6666ZM9.49998 17.4166C8.41804 17.4166 7.39547 17.2088 6.43227 16.7931C5.46908 16.3775 4.62793 15.8102 3.90883 15.0911C3.18974 14.372 2.62238 13.5308 2.20675 12.5676C1.79113 11.6044 1.58331 10.5819 1.58331 9.49992C1.58331 8.40478 1.79113 7.37561 2.20675 6.41242C2.62238 5.44922 3.18974 4.61138 3.90883 3.89888C4.62793 3.18638 5.46908 2.62231 6.43227 2.20669C7.39547 1.79106 8.41804 1.58325 9.49998 1.58325C10.5951 1.58325 11.6243 1.79106 12.5875 2.20669C13.5507 2.62231 14.3885 3.18638 15.101 3.89888C15.8135 4.61138 16.3776 5.44922 16.7932 6.41242C17.2088 7.37561 17.4166 8.40478 17.4166 9.49992C17.4166 10.5819 17.2088 11.6044 16.7932 12.5676C16.3776 13.5308 15.8135 14.372 15.101 15.0911C14.3885 15.8102 13.5507 16.3775 12.5875 16.7931C11.6243 17.2088 10.5951 17.4166 9.49998 17.4166ZM9.49998 16.2291C11.3736 16.2291 12.9635 15.5727 14.2698 14.2598C15.576 12.947 16.2291 11.3603 16.2291 9.49992C16.2291 7.62631 15.576 6.03638 14.2698 4.73013C12.9635 3.42388 11.3736 2.77075 9.49998 2.77075C7.63956 2.77075 6.05293 3.42388 4.74008 4.73013C3.42724 6.03638 2.77081 7.62631 2.77081 9.49992C2.77081 11.3603 3.42724 12.947 4.74008 14.2598C6.05293 15.5727 7.63956 16.2291 9.49998 16.2291Z" fill="#6D7D8B"/>
</g>
</svg>
