<svg width="20" height="20" viewBox="0 0 20 20" fill="none" xmlns="http://www.w3.org/2000/svg">
<path d="M10.0015 9.79166C10.4031 9.79166 10.7462 9.64868 11.0309 9.36272C11.3156 9.07677 11.458 8.73302 11.458 8.33147C11.458 7.92993 11.315 7.58679 11.0291 7.30207C10.7431 7.01735 10.3994 6.87499 9.99782 6.87499C9.59628 6.87499 9.25315 7.01797 8.96842 7.30393C8.6837 7.58987 8.54134 7.93362 8.54134 8.33518C8.54134 8.73672 8.68432 9.07985 8.97028 9.36457C9.25622 9.64929 9.59997 9.79166 10.0015 9.79166ZM9.99967 16.6875C11.8469 15.0069 13.2115 13.4826 14.0934 12.1146C14.9754 10.7465 15.4163 9.54166 15.4163 8.49999C15.4163 6.86402 14.8935 5.52447 13.8478 4.48134C12.802 3.43822 11.5194 2.91666 9.99967 2.91666C8.47999 2.91666 7.1973 3.43822 6.15159 4.48134C5.10587 5.52447 4.58301 6.86402 4.58301 8.49999C4.58301 9.54166 5.0344 10.7465 5.93717 12.1146C6.83995 13.4826 8.19412 15.0069 9.99967 16.6875ZM9.99967 18.3333C7.76356 16.4305 6.09342 14.6632 4.98926 13.0312C3.88509 11.3993 3.33301 9.88888 3.33301 8.49999C3.33301 6.41666 4.00315 4.75693 5.34342 3.52082C6.6837 2.28471 8.23579 1.66666 9.99967 1.66666C11.7636 1.66666 13.3156 2.28471 14.6559 3.52082C15.9962 4.75693 16.6663 6.41666 16.6663 8.49999C16.6663 9.88888 16.1143 11.3993 15.0101 13.0312C13.9059 14.6632 12.2358 16.4305 9.99967 18.3333Z" fill="#AEAEAE"/>
</svg>
