<svg width="20" height="20" viewBox="0 0 20 20" fill="none" xmlns="http://www.w3.org/2000/svg">
<path d="M2.91699 16.6667C2.58366 16.6667 2.29199 16.5417 2.04199 16.2917C1.79199 16.0417 1.66699 15.75 1.66699 15.4167V4.58333C1.66699 4.24999 1.79199 3.95833 2.04199 3.70833C2.29199 3.45833 2.58366 3.33333 2.91699 3.33333H17.0837C17.417 3.33333 17.7087 3.45833 17.9587 3.70833C18.2087 3.95833 18.3337 4.24999 18.3337 4.58333V15.4167C18.3337 15.75 18.2087 16.0417 17.9587 16.2917C17.7087 16.5417 17.417 16.6667 17.0837 16.6667H2.91699ZM10.0003 10.375L2.91699 5.72916V15.4167H17.0837V5.72916L10.0003 10.375ZM10.0003 9.12499L17.0003 4.58333H3.02116L10.0003 9.12499ZM2.91699 5.72916V4.58333V15.4167V5.72916Z" fill="#AEAEAE"/>
</svg>
