<svg width="999" height="586" viewBox="0 0 999 586" fill="none" xmlns="http://www.w3.org/2000/svg">
<line x1="130.371" y1="361.395" x2="217.732" y2="311.084" stroke="#8BA59D" stroke-opacity="0.73" stroke-width="1.33646"/>
<line x1="130.956" y1="160.873" x2="218.206" y2="211.373" stroke="#8BA59D" stroke-opacity="0.73" stroke-width="1.33646"/>
<line x1="44.4033" y1="210.9" x2="44.2936" y2="311.712" stroke="#8BA59D" stroke-opacity="0.73" stroke-width="1.33646"/>
<line x1="217.468" y1="210.56" x2="217.358" y2="311.372" stroke="#8BA59D" stroke-opacity="0.73" stroke-width="1.33646"/>
<line x1="44.3399" y1="211.228" x2="131.7" y2="160.917" stroke="#8BA59D" stroke-opacity="0.73" stroke-width="1.33646"/>
<line x1="44.5068" y1="310.807" x2="131.757" y2="361.308" stroke="#8BA59D" stroke-opacity="0.73" stroke-width="1.33646"/>
<line x1="131.953" y1="343.045" x2="201.441" y2="303.027" stroke="#8BA59D" stroke-opacity="0.73" stroke-width="1.33646"/>
<line x1="133.958" y1="179.136" x2="203.359" y2="219.306" stroke="#8BA59D" stroke-opacity="0.73" stroke-width="1.33646"/>
<line x1="59.8961" y1="221.145" x2="59.8088" y2="301.333" stroke="#8BA59D" stroke-opacity="0.73" stroke-width="1.33646"/>
<line x1="405.702" y1="221.145" x2="405.615" y2="301.333" stroke="#8BA59D" stroke-opacity="0.73" stroke-width="1.33646"/>
<line x1="548.366" y1="221.145" x2="548.279" y2="301.333" stroke="#8BA59D" stroke-opacity="0.73" stroke-width="1.33646"/>
<line x1="320.416" y1="351.539" x2="391.063" y2="310.853" stroke="#8BA59D" stroke-opacity="0.73" stroke-width="1.33646"/>
<line x1="216.91" y1="310.807" x2="286.311" y2="350.976" stroke="#8BA59D" stroke-opacity="0.73" stroke-width="1.33646"/>
<line x1="476.514" y1="361.395" x2="563.874" y2="311.084" stroke="#8BA59D" stroke-opacity="0.73" stroke-width="1.33646"/>
<line x1="477.098" y1="160.872" x2="564.349" y2="211.373" stroke="#8BA59D" stroke-opacity="0.73" stroke-width="1.33646"/>
<line x1="390.546" y1="210.9" x2="390.436" y2="311.712" stroke="#8BA59D" stroke-opacity="0.73" stroke-width="1.33646"/>
<line x1="563.61" y1="210.56" x2="563.501" y2="311.372" stroke="#8BA59D" stroke-opacity="0.73" stroke-width="1.33646"/>
<line x1="390.482" y1="211.228" x2="477.843" y2="160.917" stroke="#8BA59D" stroke-opacity="0.73" stroke-width="1.33646"/>
<line x1="390.649" y1="310.807" x2="477.9" y2="361.308" stroke="#8BA59D" stroke-opacity="0.73" stroke-width="1.33646"/>
<line x1="667.227" y1="170.256" x2="737.785" y2="211.094" stroke="#8BA59D" stroke-opacity="0.73" stroke-width="1.33646"/>
<line x1="737.349" y1="210.56" x2="737.24" y2="311.372" stroke="#8BA59D" stroke-opacity="0.73" stroke-width="1.33646"/>
<line x1="564.221" y1="211.228" x2="633.709" y2="171.21" stroke="#8BA59D" stroke-opacity="0.73" stroke-width="1.33646"/>
<path d="M476.847 78.6202C474.687 78.6202 472.693 78.119 470.867 77.1167C469.063 76.092 467.626 74.6776 466.557 72.8734C465.51 71.0469 464.986 68.9977 464.986 66.7257C464.986 64.4537 465.51 62.4156 466.557 60.6114C467.626 58.8072 469.063 57.4039 470.867 56.4016C472.693 55.3769 474.687 54.8646 476.847 54.8646C479.03 54.8646 481.024 55.3769 482.828 56.4016C484.655 57.4039 486.091 58.8072 487.138 60.6114C488.185 62.4156 488.709 64.4537 488.709 66.7257C488.709 68.9977 488.185 71.0469 487.138 72.8734C486.091 74.6776 484.655 76.092 482.828 77.1167C481.024 78.119 479.03 78.6202 476.847 78.6202ZM476.847 75.3124C478.384 75.3124 479.754 74.9672 480.957 74.2767C482.16 73.5639 483.095 72.5616 483.764 71.2697C484.454 69.9555 484.799 68.4408 484.799 66.7257C484.799 65.0106 484.454 63.5071 483.764 62.2152C483.095 60.9232 482.16 59.932 480.957 59.2415C479.754 58.551 478.384 58.2058 476.847 58.2058C475.311 58.2058 473.941 58.551 472.738 59.2415C471.535 59.932 470.588 60.9232 469.898 62.2152C469.23 63.5071 468.896 65.0106 468.896 66.7257C468.896 68.4408 469.23 69.9555 469.898 71.2697C470.588 72.5616 471.535 73.5639 472.738 74.2767C473.941 74.9672 475.311 75.3124 476.847 75.3124Z" fill="#8BA59D" fill-opacity="0.73"/>
<path d="M476.848 466.866C474.687 466.866 472.693 466.365 470.867 465.362C469.063 464.338 467.626 462.923 466.557 461.119C465.51 459.292 464.987 457.243 464.987 454.971C464.987 452.699 465.51 450.661 466.557 448.857C467.626 447.053 469.063 445.649 470.867 444.647C472.693 443.622 474.687 443.11 476.848 443.11C479.03 443.11 481.024 443.622 482.828 444.647C484.655 445.649 486.091 447.053 487.138 448.857C488.185 450.661 488.709 452.699 488.709 454.971C488.709 457.243 488.185 459.292 487.138 461.119C486.091 462.923 484.655 464.338 482.828 465.362C481.024 466.365 479.03 466.866 476.848 466.866ZM476.848 463.558C478.385 463.558 479.754 463.213 480.957 462.522C482.16 461.809 483.096 460.807 483.764 459.515C484.454 458.201 484.8 456.686 484.8 454.971C484.8 453.256 484.454 451.753 483.764 450.461C483.096 449.169 482.16 448.178 480.957 447.487C479.754 446.797 478.385 446.451 476.848 446.451C475.311 446.451 473.941 446.797 472.738 447.487C471.535 448.178 470.589 449.169 469.898 450.461C469.23 451.753 468.896 453.256 468.896 454.971C468.896 456.686 469.23 458.201 469.898 459.515C470.589 460.807 471.535 461.809 472.738 462.522C473.941 463.213 475.311 463.558 476.848 463.558Z" fill="#8BA59D" fill-opacity="0.73"/>
<path d="M312.931 375.753H309.122L297.662 358.412V375.753H293.853V352.498H297.662L309.122 369.805V352.498H312.931V375.753Z" fill="#8BA59D" fill-opacity="0.73"/>
<path d="M660.411 169.938H656.602L645.141 152.598V169.938H641.333V146.684H645.141L656.602 163.991V146.684H660.411V169.938Z" fill="#8BA59D" fill-opacity="0.73"/>
<path d="M312.396 383.27V406.491H308.587V396.334H297.662V406.491H293.853V383.27H297.662V393.227H308.587V383.27H312.396Z" fill="#8BA59D" fill-opacity="0.73"/>
<path d="M659.876 115.306V138.527H656.067V128.37H645.141V138.527H641.333V115.306H645.141V125.263H656.067V115.306H659.876Z" fill="#8BA59D" fill-opacity="0.73"/>
<path d="M483.884 84.8259L483.797 165.013" stroke="#8BA59D" stroke-opacity="0.73" stroke-width="1.33646"/>
<path d="M483.884 357.463L483.797 437.651" stroke="#8BA59D" stroke-opacity="0.73" stroke-width="1.33646"/>
<path d="M470.52 84.8259L470.432 165.013" stroke="#8BA59D" stroke-opacity="0.73" stroke-width="1.33646"/>
<path d="M470.52 357.463L470.433 437.651" stroke="#8BA59D" stroke-opacity="0.73" stroke-width="1.33646"/>
<line x1="824.577" y1="160.872" x2="911.828" y2="211.373" stroke="#8BA59D" stroke-opacity="0.73" stroke-width="1.33646"/>
<line x1="911.089" y1="210.56" x2="910.979" y2="311.372" stroke="#8BA59D" stroke-opacity="0.73" stroke-width="1.33646"/>
<line x1="737.961" y1="211.228" x2="825.322" y2="160.917" stroke="#8BA59D" stroke-opacity="0.73" stroke-width="1.33646"/>
<line x1="911.13" y1="210.736" x2="998.491" y2="160.425" stroke="#8BA59D" stroke-opacity="0.73" stroke-width="1.33646"/>
</svg>
