<svg width="463" height="496" viewBox="0 0 463 496" fill="none" xmlns="http://www.w3.org/2000/svg">
<line x1="190.853" y1="331.288" x2="262.707" y2="289.908" stroke="#8BA59D" stroke-opacity="0.73" stroke-width="1.33739"/>
<line x1="175.389" y1="139.988" x2="262.701" y2="190.524" stroke="#8BA59D" stroke-opacity="0.73" stroke-width="1.33739"/>
<line x1="330.879" y1="150.205" x2="406.115" y2="193.752" stroke="#8BA59D" stroke-opacity="0.73" stroke-width="1.33739"/>
<line x1="88.7766" y1="209.973" x2="88.6892" y2="290.216" stroke="#8BA59D" stroke-opacity="0.73" stroke-width="1.33739"/>
<line x1="261.962" y1="189.71" x2="261.852" y2="290.592" stroke="#8BA59D" stroke-opacity="0.73" stroke-width="1.33739"/>
<path d="M249.719 200.268L249.631 280.512" stroke="#8BA59D" stroke-opacity="0.73" stroke-width="1.33739"/>
<path d="M323.735 74.5533L323.648 154.797" stroke="#8BA59D" stroke-opacity="0.73" stroke-width="1.33739"/>
<path d="M338.446 74.5535L338.359 154.797" stroke="#8BA59D" stroke-opacity="0.73" stroke-width="1.33739"/>
<path d="M175.494 59.8417L175.406 140.085" stroke="#8BA59D" stroke-opacity="0.73" stroke-width="1.33739"/>
<path d="M175.494 367.441L175.446 411.575" stroke="#8BA59D" stroke-opacity="0.73" stroke-width="1.33739"/>
<path d="M175.484 410.237L175.425 463.733" stroke="#8BA59D" stroke-opacity="0.73" stroke-width="1.33739" stroke-dasharray="6.69 6.69"/>
<line x1="111.449" y1="177.005" x2="176.349" y2="139.629" stroke="#8BA59D" stroke-opacity="0.73" stroke-width="1.33739"/>
<line x1="262.003" y1="189.897" x2="331.539" y2="149.851" stroke="#8BA59D" stroke-opacity="0.73" stroke-width="1.33739"/>
<line x1="30.6348" y1="314.628" x2="88.5817" y2="281.256" stroke="#8BA59D" stroke-opacity="0.73" stroke-width="1.33739"/>
<line x1="37.3216" y1="326.664" x2="95.2686" y2="293.293" stroke="#8BA59D" stroke-opacity="0.73" stroke-width="1.33739"/>
<line x1="114.89" y1="190.251" x2="173.996" y2="156.212" stroke="#8BA59D" stroke-opacity="0.73" stroke-width="1.33739"/>
<line x1="88.8803" y1="290.027" x2="159.487" y2="330.894" stroke="#8BA59D" stroke-opacity="0.73" stroke-width="1.33739"/>
<path d="M184.968 357.633H181.157L169.689 340.28V357.633H165.877V334.362H169.689L181.157 351.681V334.362H184.968V357.633Z" fill="#8BA59D" fill-opacity="0.73"/>
<path d="M103.388 201.158H99.5762L88.1081 183.805V201.158H84.2965V177.887H88.1081L99.5762 195.207V177.887H103.388V201.158Z" fill="#8BA59D" fill-opacity="0.73"/>
<path d="M18.6643 340.481C16.5022 340.481 14.5073 339.979 12.6795 338.976C10.874 337.951 9.43635 336.535 8.36644 334.73C7.31882 332.902 6.79501 330.851 6.79501 328.578C6.79501 326.304 7.31882 324.265 8.36644 322.459C9.43635 320.654 10.874 319.25 12.6795 318.247C14.5073 317.221 16.5022 316.709 18.6643 316.709C20.8487 316.709 22.8437 317.221 24.6491 318.247C26.4769 319.25 27.9146 320.654 28.9622 322.459C30.0098 324.265 30.5337 326.304 30.5337 328.578C30.5337 330.851 30.0098 332.902 28.9622 334.73C27.9146 336.535 26.4769 337.951 24.6491 338.976C22.8437 339.979 20.8487 340.481 18.6643 340.481ZM18.6643 337.171C20.2023 337.171 21.5732 336.825 22.7768 336.134C23.9805 335.421 24.9166 334.418 25.5853 333.125C26.2763 331.81 26.6218 330.294 26.6218 328.578C26.6218 326.862 26.2763 325.357 25.5853 324.064C24.9166 322.771 23.9805 321.779 22.7768 321.088C21.5732 320.398 20.2023 320.052 18.6643 320.052C17.1263 320.052 15.7555 320.398 14.5519 321.088C13.3482 321.779 12.4009 322.771 11.7099 324.064C11.0412 325.357 10.7069 326.862 10.7069 328.578C10.7069 330.294 11.0412 331.81 11.7099 333.125C12.4009 334.418 13.3482 335.421 14.5519 336.134C15.7555 336.825 17.1263 337.171 18.6643 337.171Z" fill="#8BA59D" fill-opacity="0.73"/>
<path d="M425.23 212.091C423.068 212.091 421.073 211.59 419.245 210.587C417.44 209.561 416.002 208.146 414.932 206.34C413.885 204.513 413.361 202.462 413.361 200.188C413.361 197.915 413.885 195.875 414.932 194.07C416.002 192.264 417.44 190.86 419.245 189.857C421.073 188.832 423.068 188.319 425.23 188.319C427.415 188.319 429.41 188.832 431.215 189.857C433.043 190.86 434.481 192.264 435.528 194.07C436.576 195.875 437.1 197.915 437.1 200.188C437.1 202.462 436.576 204.513 435.528 206.34C434.481 208.146 433.043 209.561 431.215 210.587C429.41 211.59 427.415 212.091 425.23 212.091ZM425.23 208.781C426.768 208.781 428.139 208.436 429.343 207.745C430.546 207.031 431.483 206.028 432.151 204.735C432.842 203.42 433.188 201.905 433.188 200.188C433.188 198.472 432.842 196.967 432.151 195.675C431.483 194.382 430.546 193.39 429.343 192.699C428.139 192.008 426.768 191.662 425.23 191.662C423.692 191.662 422.321 192.008 421.118 192.699C419.914 193.39 418.967 194.382 418.276 195.675C417.607 196.967 417.273 198.472 417.273 200.188C417.273 201.905 417.607 203.42 418.276 204.735C418.967 206.028 419.914 207.031 421.118 207.745C422.321 208.436 423.692 208.781 425.23 208.781ZM459.407 188.62V211.857H455.595V201.693H444.662V211.857H440.85V188.62H444.662V198.583H455.595V188.62H459.407Z" fill="#8BA59D" fill-opacity="0.73"/>
<path d="M184.968 51.3708H181.157L169.689 34.0182V51.3708H165.877V28.1003H169.689L181.157 45.4195V28.1003H184.968V51.3708ZM208.53 28.1337V51.3708H204.718V41.2067H193.785V51.3708H189.974V28.1337H193.785V38.0973H204.718V28.1337H208.53Z" fill="#8BA59D" fill-opacity="0.73"/>
<path d="M215.32 51.9849C216.604 50.8749 217.614 49.9655 218.35 49.2567C219.099 48.5345 219.72 47.7855 220.215 47.0098C220.71 46.2342 220.957 45.4585 220.957 44.6828C220.957 43.8804 220.764 43.2518 220.376 42.7971C220.001 42.3424 219.406 42.115 218.59 42.115C217.801 42.115 217.186 42.3691 216.745 42.8773C216.317 43.3722 216.089 44.0408 216.063 44.8834H213.856C213.896 43.3588 214.351 42.1953 215.22 41.3928C216.103 40.577 217.219 40.1691 218.57 40.1691C220.028 40.1691 221.165 40.5703 221.981 41.3728C222.81 42.1752 223.224 43.2451 223.224 44.5825C223.224 45.5454 222.977 46.4749 222.482 47.3709C222.001 48.2536 221.419 49.0494 220.737 49.7582C220.068 50.4536 219.212 51.2627 218.169 52.1855L217.266 52.988H223.626V54.8938H213.876V53.2287L215.32 51.9849Z" fill="#8BA59D" fill-opacity="0.73"/>
<path d="M331.405 66.3162C329.242 66.3162 327.248 65.8147 325.42 64.8116C323.614 63.7863 322.177 62.3709 321.107 60.5654C320.059 58.7377 319.535 56.687 319.535 54.4134C319.535 52.1399 320.059 50.1004 321.107 48.2949C322.177 46.4894 323.614 45.0852 325.42 44.0821C327.248 43.0568 329.242 42.5441 331.405 42.5441C333.589 42.5441 335.584 43.0568 337.389 44.0821C339.217 45.0852 340.655 46.4894 341.702 48.2949C342.75 50.1004 343.274 52.1399 343.274 54.4134C343.274 56.687 342.75 58.7377 341.702 60.5654C340.655 62.3709 339.217 63.7863 337.389 64.8116C335.584 65.8147 333.589 66.3162 331.405 66.3162ZM331.405 63.0062C332.943 63.0062 334.313 62.6607 335.517 61.9697C336.721 61.2564 337.657 60.2534 338.326 58.9606C339.017 57.6455 339.362 56.1298 339.362 54.4134C339.362 52.6971 339.017 51.1926 338.326 49.8998C337.657 48.6069 336.721 47.615 335.517 46.9241C334.313 46.2331 332.943 45.8876 331.405 45.8876C329.867 45.8876 328.496 46.2331 327.292 46.9241C326.088 47.615 325.141 48.6069 324.45 49.8998C323.781 51.1926 323.447 52.6971 323.447 54.4134C323.447 56.1298 323.781 57.6455 324.45 58.9606C325.141 60.2534 326.088 61.2564 327.292 61.9697C328.496 62.6607 329.867 63.0062 331.405 63.0062Z" fill="#8BA59D" fill-opacity="0.73"/>
</svg>
