<svg width="579" height="579" viewBox="0 0 579 579" fill="none" xmlns="http://www.w3.org/2000/svg">
<line x1="327.678" y1="425.021" x2="417.855" y2="373.088" stroke="#8BA59D" stroke-opacity="0.73" stroke-width="1.37955"/>
<line x1="417.625" y1="269.505" x2="489.354" y2="228.196" stroke="#8BA59D" stroke-opacity="0.73" stroke-width="1.37955"/>
<line x1="328.281" y1="218.033" x2="418.345" y2="270.162" stroke="#8BA59D" stroke-opacity="0.73" stroke-width="1.37955"/>
<line x1="238.938" y1="269.674" x2="238.825" y2="373.737" stroke="#8BA59D" stroke-opacity="0.73" stroke-width="1.37955"/>
<line x1="329.334" y1="406.08" x2="401.063" y2="364.771" stroke="#8BA59D" stroke-opacity="0.73" stroke-width="1.37955"/>
<line x1="331.403" y1="236.886" x2="403.042" y2="278.35" stroke="#8BA59D" stroke-opacity="0.73" stroke-width="1.37955"/>
<line x1="255.986" y1="280.25" x2="255.896" y2="363.023" stroke="#8BA59D" stroke-opacity="0.73" stroke-width="1.37955"/>
<line x1="417.583" y1="269.323" x2="417.47" y2="373.385" stroke="#8BA59D" stroke-opacity="0.73" stroke-width="1.37955"/>
<line x1="329.102" y1="135.397" x2="329.012" y2="218.17" stroke="#8BA59D" stroke-opacity="0.73" stroke-width="1.37955"/>
<line x1="329.078" y1="423.723" x2="328.988" y2="506.496" stroke="#8BA59D" stroke-opacity="0.73" stroke-width="1.37955"/>
<line x1="238.872" y1="270.013" x2="329.05" y2="218.08" stroke="#8BA59D" stroke-opacity="0.73" stroke-width="1.37955"/>
<line x1="239.045" y1="372.802" x2="329.109" y2="424.931" stroke="#8BA59D" stroke-opacity="0.73" stroke-width="1.37955"/>
<line x1="167.237" y1="228.609" x2="238.875" y2="270.073" stroke="#8BA59D" stroke-opacity="0.73" stroke-width="1.37955"/>
<path d="M317.158 118.594C317.158 116.248 317.698 114.145 318.779 112.282C319.882 110.42 321.365 108.971 323.228 107.937C325.113 106.879 327.171 106.35 329.401 106.35C331.953 106.35 334.218 106.982 336.196 108.247C338.196 109.489 339.644 111.259 340.541 113.558H335.816C335.195 112.294 334.333 111.351 333.23 110.73C332.126 110.109 330.85 109.799 329.401 109.799C327.815 109.799 326.401 110.155 325.159 110.868C323.918 111.581 322.94 112.604 322.228 113.938C321.538 115.271 321.193 116.823 321.193 118.594C321.193 120.364 321.538 121.916 322.228 123.25C322.94 124.583 323.918 125.618 325.159 126.354C326.401 127.066 327.815 127.423 329.401 127.423C330.85 127.423 332.126 127.112 333.23 126.492C334.333 125.871 335.195 124.928 335.816 123.663H340.541C339.644 125.963 338.196 127.733 336.196 128.975C334.218 130.216 331.953 130.837 329.401 130.837C327.148 130.837 325.09 130.32 323.228 129.285C321.365 128.227 319.882 126.767 318.779 124.905C317.698 123.043 317.158 120.939 317.158 118.594ZM364.285 106.66V130.63H360.353V120.146H349.075V130.63H345.143V106.66H349.075V116.938H360.353V106.66H364.285Z" fill="#8BA59D" fill-opacity="0.73"/>
<path d="M369.505 124.963C369.588 123.68 370.077 122.68 370.974 121.962C371.884 121.245 373.043 120.886 374.45 120.886C375.416 120.886 376.251 121.059 376.954 121.404C377.658 121.748 378.189 122.218 378.548 122.811C378.906 123.404 379.086 124.073 379.086 124.818C379.086 125.673 378.858 126.404 378.403 127.011C377.948 127.618 377.403 128.025 376.768 128.232V128.315C377.582 128.563 378.217 129.019 378.672 129.681C379.127 130.329 379.355 131.164 379.355 132.185C379.355 132.999 379.169 133.723 378.796 134.358C378.424 134.992 377.872 135.496 377.141 135.868C376.409 136.227 375.533 136.406 374.513 136.406C373.023 136.406 371.795 136.027 370.829 135.268C369.877 134.496 369.367 133.392 369.298 131.957H371.574C371.629 132.688 371.912 133.288 372.423 133.757C372.933 134.213 373.623 134.44 374.492 134.44C375.333 134.44 375.982 134.213 376.437 133.757C376.892 133.288 377.12 132.688 377.12 131.957C377.12 130.991 376.809 130.309 376.189 129.909C375.582 129.495 374.644 129.288 373.374 129.288H372.836V127.343H373.395C374.513 127.329 375.361 127.143 375.94 126.784C376.534 126.425 376.83 125.86 376.83 125.087C376.83 124.425 376.616 123.901 376.189 123.514C375.761 123.114 375.154 122.914 374.368 122.914C373.595 122.914 372.995 123.114 372.567 123.514C372.14 123.901 371.884 124.383 371.802 124.963H369.505Z" fill="#8BA59D" fill-opacity="0.73"/>
<path d="M514.02 230.015H510.088L498.258 212.116V230.015H494.327V206.011H498.258L510.088 223.876V206.011H514.02V230.015ZM530.116 230.257C527.886 230.257 525.828 229.739 523.942 228.705C522.08 227.647 520.597 226.187 519.493 224.325C518.413 222.439 517.872 220.324 517.872 217.979C517.872 215.633 518.413 213.53 519.493 211.667C520.597 209.805 522.08 208.356 523.942 207.322C525.828 206.264 527.886 205.735 530.116 205.735C532.369 205.735 534.427 206.264 536.289 207.322C538.175 208.356 539.658 209.805 540.738 211.667C541.819 213.53 542.359 215.633 542.359 217.979C542.359 220.324 541.819 222.439 540.738 224.325C539.658 226.187 538.175 227.647 536.289 228.705C534.427 229.739 532.369 230.257 530.116 230.257ZM530.116 226.842C531.702 226.842 533.116 226.486 534.358 225.773C535.6 225.037 536.565 224.003 537.255 222.669C537.968 221.313 538.324 219.749 538.324 217.979C538.324 216.208 537.968 214.656 537.255 213.323C536.565 211.989 535.6 210.966 534.358 210.253C533.116 209.54 531.702 209.184 530.116 209.184C528.529 209.184 527.115 209.54 525.874 210.253C524.632 210.966 523.655 211.989 522.942 213.323C522.252 214.656 521.908 216.208 521.908 217.979C521.908 219.749 522.252 221.313 522.942 222.669C523.655 224.003 524.632 225.037 525.874 225.773C527.115 226.486 528.529 226.842 530.116 226.842Z" fill="#8BA59D" fill-opacity="0.73"/>
<path d="M546.708 232.501C548.033 231.356 549.074 230.418 549.833 229.687C550.605 228.942 551.247 228.169 551.757 227.369C552.268 226.569 552.523 225.769 552.523 224.969C552.523 224.141 552.323 223.493 551.923 223.024C551.537 222.554 550.923 222.32 550.081 222.32C549.267 222.32 548.633 222.582 548.177 223.106C547.736 223.617 547.501 224.307 547.474 225.176H545.198C545.239 223.603 545.708 222.403 546.605 221.575C547.515 220.733 548.667 220.313 550.061 220.313C551.564 220.313 552.737 220.727 553.578 221.554C554.434 222.382 554.861 223.486 554.861 224.865C554.861 225.859 554.606 226.817 554.096 227.742C553.599 228.652 552.999 229.473 552.295 230.204C551.606 230.921 550.723 231.756 549.647 232.708L548.715 233.536H555.275V235.502H545.218V233.784L546.708 232.501Z" fill="#8BA59D" fill-opacity="0.73"/>
<path d="M340.196 536.275H336.265L324.435 518.375V536.275H320.503V512.271H324.435L336.265 530.136V512.271H340.196V536.275ZM356.293 536.516C354.062 536.516 352.004 535.999 350.119 534.964C348.257 533.907 346.774 532.447 345.67 530.584C344.589 528.699 344.049 526.584 344.049 524.238C344.049 521.893 344.589 519.789 345.67 517.927C346.774 516.065 348.257 514.616 350.119 513.581C352.004 512.524 354.062 511.995 356.293 511.995C358.546 511.995 360.604 512.524 362.466 513.581C364.351 514.616 365.834 516.065 366.915 517.927C367.996 519.789 368.536 521.893 368.536 524.238C368.536 526.584 367.996 528.699 366.915 530.584C365.834 532.447 364.351 533.907 362.466 534.964C360.604 535.999 358.546 536.516 356.293 536.516ZM356.293 533.102C357.879 533.102 359.293 532.746 360.535 532.033C361.776 531.297 362.742 530.262 363.432 528.929C364.144 527.572 364.501 526.009 364.501 524.238C364.501 522.468 364.144 520.916 363.432 519.582C362.742 518.249 361.776 517.226 360.535 516.513C359.293 515.8 357.879 515.444 356.293 515.444C354.706 515.444 353.292 515.8 352.05 516.513C350.809 517.226 349.832 518.249 349.119 519.582C348.429 520.916 348.084 522.468 348.084 524.238C348.084 526.009 348.429 527.572 349.119 528.929C349.832 530.262 350.809 531.297 352.05 532.033C353.292 532.746 354.706 533.102 356.293 533.102Z" fill="#8BA59D" fill-opacity="0.73"/>
<path d="M372.885 538.761C374.209 537.616 375.251 536.678 376.01 535.947C376.782 535.202 377.424 534.429 377.934 533.629C378.444 532.829 378.7 532.029 378.7 531.228C378.7 530.401 378.5 529.752 378.1 529.283C377.713 528.814 377.099 528.58 376.258 528.58C375.444 528.58 374.809 528.842 374.354 529.366C373.913 529.877 373.678 530.566 373.651 531.435H371.374C371.416 529.863 371.885 528.662 372.781 527.835C373.692 526.993 374.844 526.572 376.237 526.572C377.741 526.572 378.914 526.986 379.755 527.814C380.61 528.642 381.038 529.745 381.038 531.125C381.038 532.118 380.783 533.077 380.272 534.001C379.776 534.912 379.176 535.733 378.472 536.464C377.782 537.181 376.899 538.016 375.823 538.968L374.892 539.795H381.452V541.761H371.395V540.044L372.885 538.761Z" fill="#8BA59D" fill-opacity="0.73"/>
<path d="M161.578 232.717H157.647L145.817 214.817V232.717H141.885V208.713H145.817L157.647 226.578V208.713H161.578V232.717Z" fill="#8BA59D" fill-opacity="0.73"/>
<path d="M112.811 232.958C110.581 232.958 108.523 232.441 106.638 231.406C104.775 230.349 103.292 228.889 102.189 227.026C101.108 225.141 100.568 223.026 100.568 220.68C100.568 218.335 101.108 216.231 102.189 214.369C103.292 212.507 104.775 211.058 106.638 210.023C108.523 208.966 110.581 208.437 112.811 208.437C115.065 208.437 117.122 208.966 118.985 210.023C120.87 211.058 122.353 212.507 123.434 214.369C124.515 216.231 125.055 218.335 125.055 220.68C125.055 223.026 124.515 225.141 123.434 227.026C122.353 228.889 120.87 230.349 118.985 231.406C117.122 232.441 115.065 232.958 112.811 232.958ZM112.811 229.544C114.398 229.544 115.812 229.188 117.053 228.475C118.295 227.739 119.261 226.704 119.951 225.371C120.663 224.014 121.02 222.451 121.02 220.68C121.02 218.91 120.663 217.358 119.951 216.024C119.261 214.691 118.295 213.668 117.053 212.955C115.812 212.242 114.398 211.886 112.811 211.886C111.225 211.886 109.811 212.242 108.569 212.955C107.328 213.668 106.35 214.691 105.638 216.024C104.948 217.358 104.603 218.91 104.603 220.68C104.603 222.451 104.948 224.014 105.638 225.371C106.35 226.704 107.328 227.739 108.569 228.475C109.811 229.188 111.225 229.544 112.811 229.544Z" fill="#8BA59D" fill-opacity="0.73"/>
<path d="M129.428 236.582C130.752 235.437 131.794 234.499 132.553 233.768C133.325 233.023 133.967 232.251 134.477 231.451C134.988 230.65 135.243 229.85 135.243 229.05C135.243 228.222 135.043 227.574 134.643 227.105C134.256 226.636 133.642 226.401 132.801 226.401C131.987 226.401 131.352 226.663 130.897 227.188C130.456 227.698 130.221 228.388 130.194 229.257H127.917C127.959 227.684 128.428 226.484 129.324 225.656C130.235 224.815 131.387 224.394 132.78 224.394C134.284 224.394 135.457 224.808 136.298 225.636C137.153 226.463 137.581 227.567 137.581 228.947C137.581 229.94 137.326 230.899 136.815 231.823C136.319 232.734 135.719 233.554 135.015 234.286C134.325 235.003 133.442 235.838 132.366 236.789L131.435 237.617H137.995V239.583H127.938V237.865L129.428 236.582Z" fill="#8BA59D" fill-opacity="0.73"/>
</svg>
