<svg width="20" height="20" viewBox="0 0 20 20" fill="none" xmlns="http://www.w3.org/2000/svg">
<path d="M12.3337 13.7083L9.37533 10.75V6.66666H10.6253V10.2292L13.2087 12.8125L12.3337 13.7083ZM9.37533 4.79166V2.91666H10.6253V4.79166H9.37533ZM15.2087 10.625V9.37499H17.0837V10.625H15.2087ZM9.37533 17.0833V15.2083H10.6253V17.0833H9.37533ZM2.91699 10.625V9.37499H4.79199V10.625H2.91699ZM10.0059 18.3333C8.85678 18.3333 7.77692 18.1146 6.76628 17.6771C5.75564 17.2396 4.87185 16.6424 4.11491 15.8854C3.35796 15.1285 2.76074 14.2441 2.32324 13.2325C1.88574 12.2208 1.66699 11.1398 1.66699 9.98957C1.66699 8.83931 1.88574 7.75834 2.32324 6.74668C2.76074 5.735 3.35796 4.85416 4.11491 4.10416C4.87185 3.35416 5.75617 2.76041 6.76785 2.32291C7.77951 1.88541 8.86048 1.66666 10.0107 1.66666C11.161 1.66666 12.242 1.88541 13.2536 2.32291C14.2653 2.76041 15.1462 3.35416 15.8962 4.10416C16.6462 4.85416 17.2399 5.7361 17.6774 6.74999C18.1149 7.76388 18.3337 8.84536 18.3337 9.99445C18.3337 11.1435 18.1149 12.2234 17.6774 13.234C17.2399 14.2447 16.6462 15.1272 15.8962 15.8816C15.1462 16.636 14.2642 17.2332 13.2503 17.6732C12.2364 18.1133 11.155 18.3333 10.0059 18.3333ZM10.0107 17.0833C11.976 17.0833 13.6462 16.3924 15.0212 15.0104C16.3962 13.6285 17.0837 11.9549 17.0837 9.98957C17.0837 8.02429 16.3975 6.35416 15.0251 4.97916C13.6527 3.60416 11.9778 2.91666 10.0003 2.91666C8.04199 2.91666 6.37185 3.60285 4.98991 4.97524C3.60796 6.34764 2.91699 8.02256 2.91699 9.99999C2.91699 11.9583 3.60796 13.6285 4.98991 15.0104C6.37185 16.3924 8.04546 17.0833 10.0107 17.0833Z" fill="#AEAEAE"/>
</svg>
