<svg width="105" height="23" viewBox="0 0 105 23" fill="none" xmlns="http://www.w3.org/2000/svg">
<path d="M10.479 14.396H4.977L4.095 17H0.336L5.67 2.258H9.828L15.162 17H11.361L10.479 14.396ZM9.555 11.624L7.728 6.227L5.922 11.624H9.555ZM20.3764 1.46V17H16.7854V1.46H20.3764ZM24.7848 4.064C24.1548 4.064 23.6368 3.882 23.2308 3.518C22.8388 3.14 22.6428 2.678 22.6428 2.132C22.6428 1.572 22.8388 1.11 23.2308 0.745999C23.6368 0.367999 24.1548 0.178999 24.7848 0.178999C25.4008 0.178999 25.9048 0.367999 26.2968 0.745999C26.7028 1.11 26.9058 1.572 26.9058 2.132C26.9058 2.678 26.7028 3.14 26.2968 3.518C25.9048 3.882 25.4008 4.064 24.7848 4.064ZM26.5698 5.282V17H22.9788V5.282H26.5698ZM42.4003 13.22H35.4073L34.0003 17H32.9713L38.3893 2.594H39.4393L44.8363 17H43.8073L42.4003 13.22ZM42.1063 12.422L38.9143 3.833L35.7013 12.422H42.1063ZM48.1533 1.46V17H47.2083V1.46H48.1533ZM55.4185 17.168C54.1445 17.168 53.1015 16.888 52.2895 16.328C51.4915 15.768 51.0435 14.97 50.9455 13.934H51.9115C51.9815 14.676 52.3175 15.264 52.9195 15.698C53.5355 16.132 54.3685 16.349 55.4185 16.349C56.2865 16.349 56.9725 16.132 57.4765 15.698C57.9945 15.25 58.2535 14.704 58.2535 14.06C58.2535 13.612 58.1135 13.248 57.8335 12.968C57.5675 12.674 57.2315 12.45 56.8255 12.296C56.4195 12.142 55.8665 11.974 55.1665 11.792C54.3265 11.568 53.6475 11.351 53.1295 11.141C52.6115 10.917 52.1705 10.588 51.8065 10.154C51.4425 9.72 51.2605 9.139 51.2605 8.411C51.2605 7.879 51.4215 7.389 51.7435 6.941C52.0655 6.479 52.5135 6.115 53.0875 5.849C53.6615 5.583 54.3125 5.45 55.0405 5.45C56.2305 5.45 57.1895 5.751 57.9175 6.353C58.6595 6.941 59.0585 7.76 59.1145 8.81H58.1695C58.1275 8.054 57.8335 7.438 57.2875 6.962C56.7415 6.486 55.9855 6.248 55.0195 6.248C54.2075 6.248 53.5355 6.458 53.0035 6.878C52.4715 7.298 52.2055 7.809 52.2055 8.411C52.2055 8.943 52.3525 9.377 52.6465 9.713C52.9545 10.035 53.3255 10.287 53.7595 10.469C54.2075 10.637 54.7955 10.819 55.5235 11.015C56.3215 11.225 56.9585 11.435 57.4345 11.645C57.9245 11.841 58.3375 12.135 58.6735 12.527C59.0095 12.905 59.1775 13.416 59.1775 14.06C59.1775 14.648 59.0165 15.18 58.6945 15.656C58.3725 16.132 57.9245 16.503 57.3505 16.769C56.7765 17.035 56.1325 17.168 55.4185 17.168ZM70.96 5.597L64.324 22.355H63.358L65.479 17L60.691 5.597H61.72L66.004 15.95L69.994 5.597H70.96ZM78.0877 17.168C77.0237 17.168 76.0647 16.93 75.2107 16.454C74.3567 15.978 73.6847 15.299 73.1947 14.417C72.7187 13.521 72.4807 12.478 72.4807 11.288C72.4807 10.112 72.7257 9.083 73.2157 8.201C73.7057 7.305 74.3777 6.626 75.2317 6.164C76.0997 5.688 77.0657 5.45 78.1297 5.45C79.1937 5.45 80.1527 5.688 81.0067 6.164C81.8607 6.626 82.5257 7.298 83.0017 8.18C83.4917 9.062 83.7367 10.098 83.7367 11.288C83.7367 12.478 83.4917 13.521 83.0017 14.417C82.5117 15.299 81.8327 15.978 80.9647 16.454C80.1107 16.93 79.1517 17.168 78.0877 17.168ZM78.0877 16.328C78.9137 16.328 79.6837 16.146 80.3977 15.782C81.1257 15.404 81.7067 14.837 82.1407 14.081C82.5747 13.325 82.7917 12.394 82.7917 11.288C82.7917 10.196 82.5747 9.272 82.1407 8.516C81.7067 7.76 81.1327 7.2 80.4187 6.836C79.7047 6.458 78.9347 6.269 78.1087 6.269C77.2827 6.269 76.5127 6.458 75.7987 6.836C75.0987 7.2 74.5317 7.76 74.0977 8.516C73.6637 9.272 73.4467 10.196 73.4467 11.288C73.4467 12.394 73.6567 13.325 74.0767 14.081C74.5107 14.837 75.0777 15.404 75.7777 15.782C76.4917 16.146 77.2617 16.328 78.0877 16.328ZM96.2428 5.597V17H95.2978V14.522C94.9758 15.39 94.4368 16.055 93.6808 16.517C92.9388 16.965 92.0848 17.189 91.1188 17.189C89.7608 17.189 88.6478 16.776 87.7798 15.95C86.9258 15.11 86.4988 13.871 86.4988 12.233V5.597H87.4228V12.17C87.4228 13.528 87.7658 14.571 88.4518 15.299C89.1378 16.013 90.0688 16.37 91.2448 16.37C92.4768 16.37 93.4568 15.978 94.1848 15.194C94.9268 14.41 95.2978 13.248 95.2978 11.708V5.597H96.2428ZM104.035 6.437H101.074V17H100.129V6.437H98.4068V5.597H100.129V4.799C100.129 3.609 100.43 2.727 101.032 2.153C101.634 1.565 102.621 1.271 103.993 1.271V2.111C102.901 2.111 102.138 2.321 101.704 2.741C101.284 3.161 101.074 3.847 101.074 4.799V5.597H104.035V6.437Z" fill="#031C21"/>
</svg>
