<svg width="16" height="16" viewBox="0 0 16 16" fill="none" xmlns="http://www.w3.org/2000/svg">
<path d="M13.5556 0H2.44444C1.09689 0 0 1.09689 0 2.44444V13.5556C0 14.9031 1.09689 16 2.44444 16H13.5556C14.9031 16 16 14.9031 16 13.5556V2.44444C16 1.09689 14.9031 0 13.5556 0ZM5.33333 12.4444C5.33333 12.6902 5.13467 12.8889 4.88889 12.8889H3.55556C3.30978 12.8889 3.11111 12.6902 3.11111 12.4444V6.66667C3.11111 6.42089 3.30978 6.22222 3.55556 6.22222H4.88889C5.13467 6.22222 5.33333 6.42089 5.33333 6.66667V12.4444ZM4.22222 5.33333C3.60844 5.33333 3.11111 4.836 3.11111 4.22222C3.11111 3.60844 3.60844 3.11111 4.22222 3.11111C4.836 3.11111 5.33333 3.60844 5.33333 4.22222C5.33333 4.836 4.836 5.33333 4.22222 5.33333ZM12.8889 12.4444C12.8889 12.6902 12.6902 12.8889 12.4444 12.8889H11.1111C10.8653 12.8889 10.6667 12.6902 10.6667 12.4444V9.11111C10.6667 8.49822 10.1684 8 9.55556 8C8.94267 8 8.44444 8.49822 8.44444 9.11111V12.4444C8.44444 12.6902 8.24578 12.8889 8 12.8889H6.66667C6.42089 12.8889 6.22222 12.6902 6.22222 12.4444V6.66667C6.22222 6.42089 6.42089 6.22222 6.66667 6.22222H8C8.24578 6.22222 8.44444 6.42089 8.44444 6.66667V6.90711C8.91689 6.48267 9.53867 6.22222 10.2222 6.22222C11.6929 6.22222 12.8889 7.41822 12.8889 8.88889V12.4444Z" fill="#66807C"/>
</svg>
